# xmcd
#
# Track frame offsets:
#	150
#	11708
#	24444
#	33221
#	54234
#	69226
#	81047
#	93191
#	109571
#	123890
#	135346
#	148624
#	160653
#	170545
#
# Disc length: 2423 seconds
# Revision: 0
# Processed by: cddbd v1.5.2PL0 Copyright (c) Steve Scherf et al.
# Submitted via: dBpowerAMP V12.0
#
DISCID=9d09750e
DTITLE=Matt and George and their Pleasant Valley Boys - Blue Grass Style
DYEAR=2017
DGENRE=Bluegrass
TTITLE0=The Love I Have for You
TTITLE1=I Wanna Make Heaven My Home
TTITLE2=Blue Grass Style
TTITLE3=Because I'm the Man
TTITLE4=Muddy Water
TTITLE5=God's Golden Shore
TTITLE6=Dixie Holiday
TTITLE7=Plenty of Everything But You
TTITLE8=Pleasant Valley Hop
TTITLE9=Why Do You Cry, Little Darling?
TTITLE10=I Can't Go!
TTITLE11=Carolina Sunset
TTITLE12=You're Still on My Mind
TTITLE13=Cabin on the Hill
EXTD=
EXTT0=
EXTT1=
EXTT2=
EXTT3=
EXTT4=
EXTT5=
EXTT6=
EXTT7=
EXTT8=
EXTT9=
EXTT10=
EXTT11=
EXTT12=
EXTT13=
PLAYORDER=
